<svg width="18" height="18" viewBox="0 0 18 18" fill="none" xmlns="http://www.w3.org/2000/svg">
<g id="live area">
<g id="23 browsing">
<path id="Vector" d="M15.1345 15.4026L13.2559 13.524C13.6118 12.9856 13.755 12.3343 13.658 11.6963C13.5609 11.0583 13.2304 10.479 12.7305 10.0708C12.2306 9.66267 11.597 9.45466 10.9524 9.48713C10.3079 9.5196 9.69835 9.79024 9.24201 10.2466C8.78567 10.7029 8.51503 11.3124 8.48256 11.957C8.45009 12.6015 8.65811 13.2352 9.06628 13.735C9.47445 14.2349 10.0537 14.5655 10.6917 14.6625C11.3297 14.7596 11.9811 14.6163 12.5194 14.2605L14.3981 16.1391C14.4963 16.234 14.6279 16.2865 14.7644 16.2853C14.901 16.2841 15.0316 16.2293 15.1282 16.1328C15.2248 16.0362 15.2795 15.9056 15.2807 15.769C15.2819 15.6324 15.2294 15.5009 15.1345 15.4026ZM9.97829 13.1927C9.75972 12.9742 9.61086 12.6958 9.55053 12.3927C9.49021 12.0896 9.52112 11.7754 9.63937 11.4899C9.75762 11.2044 9.95789 10.9603 10.2148 10.7886C10.4718 10.6169 10.7739 10.5252 11.083 10.5252C11.392 10.5252 11.6941 10.6169 11.9511 10.7886C12.2081 10.9603 12.4083 11.2044 12.5266 11.4899C12.6448 11.7754 12.6757 12.0896 12.6154 12.3927C12.5551 12.6958 12.4062 12.9742 12.1877 13.1927C11.8901 13.4767 11.4945 13.6351 11.0832 13.6351C10.6719 13.6351 10.2759 13.4767 9.97829 13.1927ZM16.2918 4.83337V2.75004C16.2918 2.47377 16.1821 2.20882 15.9867 2.01347C15.7914 1.81812 15.5264 1.70837 15.2502 1.70837H2.75016C2.4739 1.70837 2.20894 1.81812 2.01359 2.01347C1.81824 2.20882 1.7085 2.47377 1.7085 2.75004V4.83337H16.2918ZM6.92204 2.75004H6.92725C7.06515 2.75073 7.19716 2.80609 7.2943 2.90397C7.39145 3.00185 7.44582 3.13426 7.44547 3.27217C7.44513 3.41008 7.3901 3.54222 7.29247 3.63961C7.19483 3.73701 7.06255 3.7917 6.92464 3.7917C6.78673 3.7917 6.65446 3.73701 6.55682 3.63961C6.45918 3.54222 6.40415 3.41008 6.40381 3.27217C6.40347 3.13426 6.45783 3.00185 6.55498 2.90397C6.65213 2.80609 6.78413 2.75073 6.92204 2.75004ZM5.35954 2.75004H5.36475C5.50265 2.75073 5.63466 2.80609 5.7318 2.90397C5.82895 3.00185 5.88332 3.13426 5.88297 3.27217C5.88263 3.41008 5.8276 3.54222 5.72997 3.63961C5.63233 3.73701 5.50005 3.7917 5.36214 3.7917C5.22423 3.7917 5.09196 3.73701 4.99432 3.63961C4.89668 3.54222 4.84166 3.41008 4.84131 3.27217C4.84097 3.13426 4.89533 3.00185 4.99248 2.90397C5.08963 2.80609 5.22163 2.75073 5.35954 2.75004ZM3.79704 2.75004H3.80225C3.94015 2.75073 4.07216 2.80609 4.16931 2.90397C4.26645 3.00185 4.32082 3.13426 4.32047 3.27217C4.32013 3.41008 4.2651 3.54222 4.16747 3.63961C4.06983 3.73701 3.93755 3.7917 3.79964 3.7917C3.66173 3.7917 3.52946 3.73701 3.43182 3.63961C3.33418 3.54222 3.27916 3.41008 3.27881 3.27217C3.27847 3.13426 3.33283 3.00185 3.42998 2.90397C3.52713 2.80609 3.65913 2.75073 3.79704 2.75004ZM16.2918 5.87504V12.125C16.2918 12.4013 16.1821 12.6663 15.9867 12.8616C15.7914 13.057 15.5264 13.1667 15.2502 13.1667H14.5668C14.7354 12.6213 14.7735 12.0439 14.678 11.481C14.5826 10.9181 14.3563 10.3855 14.0175 9.92612C13.6786 9.4667 13.2365 9.09329 12.7269 8.83595C12.2173 8.57861 11.6544 8.44454 11.0835 8.44454C10.5126 8.44454 9.94969 8.57861 9.44009 8.83595C8.93048 9.09329 8.48843 9.4667 8.14954 9.92612C7.81064 10.3855 7.58437 10.9181 7.48895 11.481C7.39353 12.0439 7.43162 12.6213 7.60016 13.1667H2.75016C2.4739 13.1667 2.20894 13.057 2.01359 12.8616C1.81824 12.6663 1.7085 12.4013 1.7085 12.125V5.87504H16.2918Z" fill="#AEAEAE"/>
</g>
</g>
</svg>
