<svg width="18" height="18" viewBox="0 0 18 18" fill="none" xmlns="http://www.w3.org/2000/svg">
<g id="Live area" clip-path="url(#clip0_2155_1626)">
<g id="Vector">
<path d="M9.42848 7.59963C9.25324 7.24456 8.74692 7.24456 8.57169 7.59962L7.91172 8.93686C7.84214 9.07785 7.70762 9.17558 7.55202 9.19819L6.0763 9.41263C5.68446 9.46957 5.528 9.9511 5.81154 10.2275L6.87938 11.2684C6.99197 11.3781 7.04335 11.5363 7.01677 11.6912L6.76469 13.161C6.69776 13.5512 7.10737 13.8488 7.45785 13.6646L8.77777 12.9707C8.91695 12.8975 9.08321 12.8975 9.22239 12.9707L10.5423 13.6646C10.8928 13.8488 11.3024 13.5512 11.2355 13.161L10.9834 11.6912C10.9568 11.5363 11.0082 11.3781 11.1208 11.2684L12.1886 10.2275C12.4722 9.9511 12.3157 9.46957 11.9239 9.41263L10.4481 9.19819C10.2925 9.17558 10.158 9.07786 10.0884 8.93686L9.42848 7.59963Z" fill="#AEAEAE"/>
<path fill-rule="evenodd" clip-rule="evenodd" d="M6.50008 1.49999C6.50008 1.03975 6.12699 0.666656 5.66675 0.666656C5.20651 0.666656 4.83341 1.03975 4.83341 1.49999V2.33332H4.00008C2.15913 2.33332 0.666748 3.82571 0.666748 5.66666V15.6667C0.666748 16.5871 1.41294 17.3333 2.33341 17.3333H15.6667C16.5872 17.3333 17.3334 16.5871 17.3334 15.6667V5.66666C17.3334 3.82571 15.841 2.33332 14.0001 2.33332H13.1667V1.49999C13.1667 1.03975 12.7937 0.666656 12.3334 0.666656C11.8732 0.666656 11.5001 1.03975 11.5001 1.49999V2.33332L6.50008 2.33332V1.49999ZM11.5001 4.83332V3.99999L6.50008 3.99999V4.83332C6.50008 5.29356 6.12699 5.66666 5.66675 5.66666C5.20651 5.66666 4.83341 5.29356 4.83341 4.83332V3.99999H4.00008C3.07961 3.99999 2.33341 4.74618 2.33341 5.66666L2.33341 15.6667H15.6667V5.66666C15.6667 4.74618 14.9206 3.99999 14.0001 3.99999H13.1667V4.83332C13.1667 5.29356 12.7937 5.66666 12.3334 5.66666C11.8732 5.66666 11.5001 5.29356 11.5001 4.83332Z" fill="#AEAEAE"/>
</g>
</g>
<defs>
<clipPath id="clip0_2155_1626">
<rect width="16.6667" height="16.6667" fill="white" transform="translate(0.666748 0.666656)"/>
</clipPath>
</defs>
</svg>
