<svg width="20" height="20" viewBox="0 0 20 20" fill="none" xmlns="http://www.w3.org/2000/svg">
<g id="Live area" clip-path="url(#clip0_2201_1247)">
<path id="Vector" fill-rule="evenodd" clip-rule="evenodd" d="M10 20C15.5228 20 20 15.5228 20 10C20 4.47715 15.5228 0 10 0C4.47715 0 0 4.47715 0 10C0 15.5228 4.47715 20 10 20ZM10.4519 6.87521C10.0404 6.76783 9.53982 6.87439 9.20711 7.2071C8.81658 7.59762 8.18342 7.59762 7.79289 7.2071C7.40237 6.81657 7.40237 6.18341 7.79289 5.79288C8.67181 4.91397 9.92126 4.66981 10.9568 4.93999C12.0217 5.2178 13 6.09936 13 7.49999C13 8.67244 12.2263 9.44116 11.7707 9.89375L11.7071 9.9571C11.1498 10.5144 11 10.729 11 11C11 11.5523 10.5523 12 10 12C9.44771 12 9 11.5523 9 11C9 9.82755 9.77373 9.05883 10.2293 8.60624L10.2929 8.54289C10.8502 7.98555 11 7.77094 11 7.49999C11 7.19919 10.8342 6.97493 10.4519 6.87521ZM8.75 14.75C8.75 14.0596 9.30964 13.5 10 13.5C10.6904 13.5 11.25 14.0596 11.25 14.75C11.25 15.4404 10.6904 16 10 16C9.30964 16 8.75 15.4404 8.75 14.75Z" fill="#AEAEAE"/>
</g>
<defs>
<clipPath id="clip0_2201_1247">
<rect width="20" height="20" fill="white"/>
</clipPath>
</defs>
</svg>
