<svg width="20" height="20" viewBox="0 0 20 20" fill="none" xmlns="http://www.w3.org/2000/svg">
<g id="Live area">
<path id="Vector" fill-rule="evenodd" clip-rule="evenodd" d="M4.78077 1C3.86303 1 3.06307 1.62459 2.84048 2.51493L1.03529 9.73571C1.02268 9.78184 1.01329 9.8293 1.00738 9.87784C1.00135 9.92634 0.998949 9.97464 0.999992 10.0224L0.999992 17C0.999992 18.1046 1.89542 19 2.99999 19H17C18.1046 19 19 18.1046 19 17V10.0224C19.001 9.97462 18.9986 9.92631 18.9926 9.8778C18.9867 9.82928 18.9773 9.78183 18.9647 9.7357L17.1595 2.51493C16.9369 1.6246 16.137 1 15.2192 1H4.78077ZM5.99999 10H3.03077L4.78077 3L15.2192 3L16.9692 10H14C13.4477 10 13.0163 10.46 12.8356 10.9819C12.4289 12.1565 11.313 13 9.99999 13C8.68702 13 7.57104 12.1565 7.16436 10.9819C6.98368 10.46 6.55228 10 5.99999 10Z" fill="#AEAEAE"/>
</g>
</svg>
