<svg width="6" height="6" viewBox="0 0 6 6" fill="none" xmlns="http://www.w3.org/2000/svg">
<g id="Live area" clip-path="url(#clip0_2221_2146)">
<path id="Vector" fill-rule="evenodd" clip-rule="evenodd" d="M1.44442 2.05558V1.7778C1.44442 1.01074 2.06624 0.388916 2.83331 0.388916C3.60037 0.388916 4.22219 1.01074 4.22219 1.7778V2.05558H4.49997C4.8068 2.05558 5.05553 2.30431 5.05553 2.61114V5.38892C5.05553 5.69574 4.8068 5.94447 4.49997 5.94447H1.16664C0.859815 5.94447 0.611084 5.69574 0.611084 5.38892V2.61114C0.611084 2.30431 0.859815 2.05558 1.16664 2.05558H1.44442ZM1.99997 1.7778C1.99997 1.31757 2.37307 0.944472 2.83331 0.944472C3.29354 0.944472 3.66664 1.31757 3.66664 1.7778V2.05558H1.99997V1.7778ZM2.83331 3.37503C3.02507 3.37503 3.18053 3.53048 3.18053 3.72225V4.2778C3.18053 4.46957 3.02507 4.62503 2.83331 4.62503C2.64154 4.62503 2.48608 4.46957 2.48608 4.2778V3.72225C2.48608 3.53048 2.64154 3.37503 2.83331 3.37503Z" fill="#AEAEAE"/>
</g>
<defs>
<clipPath id="clip0_2221_2146">
<rect width="5.55556" height="5.55556" fill="white" transform="translate(0.055542 0.388916)"/>
</clipPath>
</defs>
</svg>
