<svg width="20" height="20" viewBox="0 0 20 20" fill="none" xmlns="http://www.w3.org/2000/svg">
<g id="Live area" clip-path="url(#clip0_2190_1826)">
<g id="Vector">
<path d="M1.65071 0.240611C1.25783 -0.0967751 0.665134 -0.0793476 0.292893 0.292893C-0.0976311 0.683418 -0.0976311 1.31658 0.292893 1.70711L3.36097 4.77518C3.12684 5.47412 3 6.22225 3 7V10.5L1.29289 12.2071C1.10536 12.3946 1 12.649 1 12.9142V15C1 15.5523 1.44772 16 2 16H14.5858L18.2929 19.7071C18.6834 20.0976 19.3166 20.0976 19.7071 19.7071C20.079 19.3352 20.0967 18.7432 19.7603 18.3503C19.7406 18.3335 19.7215 18.3158 19.7029 18.2972L1.70304 0.297067C1.68474 0.278765 1.6673 0.259929 1.65071 0.240611Z" fill="#AEAEAE"/>
<path d="M19 14.7658V12.9142C19 12.649 18.8946 12.3946 18.7071 12.2071L17 10.5V7C17 3.13401 13.866 1.49257e-08 10 1.49257e-08C8.38159 1.49257e-08 6.89146 0.54923 5.70583 1.47147L19 14.7658Z" fill="#AEAEAE"/>
<path d="M10 20C8.32132 20 6.88416 18.9659 6.29077 17.5H13.7093C13.1159 18.9659 11.6787 20 10 20Z" fill="#AEAEAE"/>
</g>
</g>
<defs>
<clipPath id="clip0_2190_1826">
<rect width="20" height="20" fill="white"/>
</clipPath>
</defs>
</svg>
