<svg width="20" height="20" viewBox="0 0 20 20" fill="none" xmlns="http://www.w3.org/2000/svg">
<g id="Live area" clip-path="url(#clip0_2190_1462)">
<path id="Vector" d="M8.70711 0.292893C9.09763 0.683417 9.09763 1.31658 8.70711 1.70711L8.20711 2.20711L10.2972 4.2972C10.4297 4.42973 10.5968 4.52235 10.7795 4.56449L16.7205 5.93551C16.9032 5.97765 17.0703 6.07027 17.2028 6.2028L19.2929 8.29289C19.6834 8.68342 19.6834 9.31658 19.2929 9.70711L15.2071 13.7929L18.7071 17.2929C19.0976 17.6834 19.0976 18.3166 18.7071 18.7071C18.3166 19.0976 17.6834 19.0976 17.2929 18.7071L13.7929 15.2071L9.70711 19.2929C9.31658 19.6834 8.68342 19.6834 8.29289 19.2929L6.2028 17.2028C6.07027 17.0703 5.97765 16.9032 5.93551 16.7205L4.56449 10.7795C4.52235 10.5968 4.42973 10.4297 4.2972 10.2972L2.20711 8.20711L1.70711 8.70711C1.31658 9.09763 0.683417 9.09763 0.292893 8.70711C-0.0976311 8.31658 -0.0976311 7.68342 0.292893 7.29289L7.29289 0.292893C7.68342 -0.0976311 8.31658 -0.0976311 8.70711 0.292893Z" fill="#AEAEAE"/>
</g>
<defs>
<clipPath id="clip0_2190_1462">
<rect width="20" height="20" fill="white"/>
</clipPath>
</defs>
</svg>
