<svg width="18" height="18" viewBox="0 0 18 18" fill="none" xmlns="http://www.w3.org/2000/svg">
<g id="Live area" clip-path="url(#clip0_2190_1532)">
<path id="Vector" fill-rule="evenodd" clip-rule="evenodd" d="M11.0804 12.8481C10.0125 13.5751 8.72257 14 7.33335 14C3.65146 14 0.666687 11.0152 0.666687 7.33332C0.666687 3.65142 3.65146 0.666656 7.33335 0.666656C11.0153 0.666656 14 3.65142 14 7.33332C14 8.72254 13.5751 10.0125 12.8481 11.0803L16.9672 15.1994C17.4554 15.6876 17.4554 16.4791 16.9672 16.9672C16.4791 17.4554 15.6876 17.4554 15.1995 16.9672L11.0804 12.8481ZM11.5 7.33332C11.5 9.63451 9.63454 11.5 7.33335 11.5C5.03217 11.5 3.16669 9.63451 3.16669 7.33332C3.16669 5.03214 5.03217 3.16666 7.33335 3.16666C9.63454 3.16666 11.5 5.03214 11.5 7.33332Z" fill="#535353"/>
</g>
<defs>
<clipPath id="clip0_2190_1532">
<rect width="16.6667" height="16.6667" fill="white" transform="translate(0.666687 0.666656)"/>
</clipPath>
</defs>
</svg>
