<svg width="20" height="20" viewBox="0 0 20 20" fill="none" xmlns="http://www.w3.org/2000/svg">
<g id="live area" clip-path="url(#clip0_2190_1641)">
<g id="Group">
<path id="Vector" d="M17.8721 9.58565L18.7007 8.75701C18.9298 8.52799 18.9298 8.15733 18.7007 7.92838L12.0716 1.29924C11.8426 1.07022 11.472 1.07022 11.243 1.29924L10.4143 2.12787C10.1853 2.3569 10.1853 2.72748 10.4143 2.9565L17.0435 9.58565C17.2724 9.81467 17.6431 9.81467 17.8721 9.58565Z" fill="#AEAEAE"/>
<path id="Vector_2" d="M8.75698 18.7007L9.58562 17.8721C9.81464 17.6431 9.81464 17.2724 9.58562 17.0434L2.95647 10.4143C2.72753 10.1853 2.35687 10.1853 2.12784 10.4143L1.29921 11.243C1.07019 11.4719 1.07019 11.8426 1.29921 12.0716L7.92835 18.7007C8.15737 18.9298 8.52796 18.9298 8.75698 18.7007Z" fill="#AEAEAE"/>
<path id="Vector_3" d="M9.16968 5.02902L9.99819 4.20051L15.7978 10.0001L14.9693 10.8286L9.16968 5.02902Z" fill="#AEAEAE"/>
<path id="Vector_4" d="M7.51245 6.686L8.34097 5.85749L14.1405 11.6571L13.312 12.4856L7.51245 6.686Z" fill="#AEAEAE"/>
<path id="Vector_5" d="M5.8551 8.3429L6.68362 7.51438L12.4832 13.314L11.6547 14.1425L5.8551 8.3429Z" fill="#AEAEAE"/>
<path id="Vector_6" d="M4.19788 9.99985L5.02639 9.17133L10.826 14.9709L9.99746 15.7994L4.19788 9.99985Z" fill="#AEAEAE"/>
<path id="Vector_7" d="M0.343237 19.6568C0.800855 20.1145 1.54285 20.1144 2.0005 19.6568L4.61386 17.0434L2.95656 15.3861L0.343276 17.9995C-0.11438 18.4571 -0.114458 19.1991 0.343237 19.6568Z" fill="#AEAEAE"/>
<path id="Vector_8" d="M19.6567 0.343271C19.1991 -0.114424 18.4571 -0.114424 17.9994 0.343271L15.3861 2.95651L17.0434 4.61382L19.6567 2.0005C20.1144 1.5428 20.1144 0.800889 19.6567 0.343271Z" fill="#AEAEAE"/>
</g>
</g>
<defs>
<clipPath id="clip0_2190_1641">
<rect width="20" height="20" fill="white"/>
</clipPath>
</defs>
</svg>
