<svg width="20" height="20" viewBox="0 0 20 20" fill="none" xmlns="http://www.w3.org/2000/svg">
<g id="Live area">
<g id="Vector">
<path d="M10 7C11.6569 7 13 5.65685 13 4C13 2.34315 11.6569 1 10 1C8.34315 1 7 2.34315 7 4C7 5.65685 8.34315 7 10 7Z" fill="white"/>
<path d="M3.5 7C2.11929 7 1 5.88071 1 4.5C1 3.11929 2.11929 2 3.5 2C4.88071 2 6 3.11929 6 4.5C6 5.88071 4.88071 7 3.5 7Z" fill="white"/>
<path d="M14 4.5C14 5.88071 15.1193 7 16.5 7C17.8807 7 19 5.88071 19 4.5C19 3.11929 17.8807 2 16.5 2C15.1193 2 14 3.11929 14 4.5Z" fill="white"/>
<path d="M5 11C5 9.34315 6.34315 8 8 8H12C13.6569 8 15 9.34315 15 11V14.382C15 14.7607 14.786 15.107 14.4472 15.2764L13 16V19C13 19.5523 12.5523 20 12 20H8C7.44772 20 7 19.5523 7 19V16L5.55279 15.2764C5.214 15.107 5 14.7607 5 14.382V11Z" fill="white"/>
<path d="M2 8C0.895431 8 0 8.89543 0 10V14.382C0 14.7607 0.214002 15.107 0.552786 15.2764L2 16V19C2 19.5523 2.44772 20 3 20H5.5V17L4.05279 16.2764C3.714 16.107 3.5 15.7607 3.5 15.382V10.6056C3.5 9.60249 4.0013 8.6658 4.8359 8.1094L5 8H2Z" fill="white"/>
<path d="M20 10C20 8.89543 19.1046 8 18 8H15L15.1641 8.1094C15.9987 8.6658 16.5 9.60249 16.5 10.6056V15.382C16.5 15.7607 16.286 16.107 15.9472 16.2764L14.5 17V20H17C17.5523 20 18 19.5523 18 19V16L19.4472 15.2764C19.786 15.107 20 14.7607 20 14.382V10Z" fill="white"/>
</g>
</g>
</svg>
